<svg xmlns="http://www.w3.org/2000/svg" width="58" height="58" viewBox="0 0 58 58"><defs><filter id="g" x="-60%" y="-60%" width="220%" height="220%"><feGaussianBlur stdDeviation="1.4" result="b"/><feMerge><feMergeNode in="b"/><feMergeNode in="SourceGraphic"/></feMerge></filter></defs><g filter="url(#g)"><g opacity="1"><polygon points="20.52,35.00 39.05,31.63 36.91,13.15 16.02,16.95" fill="#64e490" fill-opacity="0.88" stroke="#fff" stroke-opacity="0.42" stroke-width="0.62"/><polygon points="20.52,35.00 19.86,47.33 44.01,42.93 39.05,31.63" fill="#92ecb1" fill-opacity="0.88" stroke="#fff" stroke-opacity="0.42" stroke-width="0.62"/><polygon points="39.05,31.63 44.01,42.93 41.95,19.84 36.91,13.15" fill="#59e288" fill-opacity="0.88" stroke="#fff" stroke-opacity="0.42" stroke-width="0.62"/><polygon points="19.86,47.33 20.52,35.00 16.02,16.95 13.65,24.99" fill="#4dc87a" fill-opacity="0.88" stroke="#fff" stroke-opacity="0.42" stroke-width="0.62"/><animate attributeName="opacity" dur="4s" repeatCount="indefinite" calcMode="discrete" values="1;0;0;0;0;0;0;0;0;0;0;0;0;0;0;0;1" keyTimes="0.00000;0.06250;0.12500;0.18750;0.25000;0.31250;0.37500;0.43750;0.50000;0.56250;0.62500;0.68750;0.75000;0.81250;0.87500;0.93750;1.00000"/></g><g opacity="0"><polygon points="16.01,36.41 33.40,31.30 33.04,13.44 13.10,17.14" fill="#57e287" fill-opacity="0.88" stroke="#fff" stroke-opacity="0.42" stroke-width="0.62"/><polygon points="16.01,36.41 23.93,48.54 44.71,40.72 33.40,31.30" fill="#91ecb0" fill-opacity="0.88" stroke="#fff" stroke-opacity="0.42" stroke-width="0.62"/><polygon points="33.40,31.30 44.71,40.72 46.11,19.24 33.04,13.44" fill="#68e594" fill-opacity="0.88" stroke="#fff" stroke-opacity="0.42" stroke-width="0.62"/><animate attributeName="opacity" dur="4s" repeatCount="indefinite" calcMode="discrete" values="0;1;0;0;0;0;0;0;0;0;0;0;0;0;0;0;0" keyTimes="0.00000;0.06250;0.12500;0.18750;0.25000;0.31250;0.37500;0.43750;0.50000;0.56250;0.62500;0.68750;0.75000;0.81250;0.87500;0.93750;1.00000"/></g><g opacity="0"><polygon points="27.61,32.32 43.10,39.38 46.60,18.82 28.92,14.34" fill="#74e79c" fill-opacity="0.88" stroke="#fff" stroke-opacity="0.42" stroke-width="0.62"/><polygon points="12.83,38.36 27.61,32.32 28.92,14.34 12.51,16.86" fill="#48df7c" fill-opacity="0.88" stroke="#fff" stroke-opacity="0.42" stroke-width="0.62"/><polygon points="12.83,38.36 29.11,48.54 43.10,39.38 27.61,32.32" fill="#8bebac" fill-opacity="0.88" stroke="#fff" stroke-opacity="0.42" stroke-width="0.62"/><animate attributeName="opacity" dur="4s" repeatCount="indefinite" calcMode="discrete" values="0;0;1;0;0;0;0;0;0;0;0;0;0;0;0;0;0" keyTimes="0.00000;0.06250;0.12500;0.18750;0.25000;0.31250;0.37500;0.43750;0.50000;0.56250;0.62500;0.68750;0.75000;0.81250;0.87500;0.93750;1.00000"/></g><g opacity="0"><polygon points="22.34,34.57 40.47,39.13 44.14,19.07 24.62,15.92" fill="#7be8a1" fill-opacity="0.88" stroke="#fff" stroke-opacity="0.42" stroke-width="0.62"/><polygon points="11.89,40.22 22.34,34.57 24.62,15.92 14.11,15.84" fill="#40cb72" fill-opacity="0.88" stroke="#fff" stroke-opacity="0.42" stroke-width="0.62"/><polygon points="11.89,40.22 35.03,47.01 40.47,39.13 22.34,34.57" fill="#83e9a6" fill-opacity="0.88" stroke="#fff" stroke-opacity="0.42" stroke-width="0.62"/><animate attributeName="opacity" dur="4s" repeatCount="indefinite" calcMode="discrete" values="0;0;0;1;0;0;0;0;0;0;0;0;0;0;0;0;0" keyTimes="0.00000;0.06250;0.12500;0.18750;0.25000;0.31250;0.37500;0.43750;0.50000;0.56250;0.62500;0.68750;0.75000;0.81250;0.87500;0.93750;1.00000"/></g><g opacity="0"><polygon points="18.18,37.77 37.77,39.82 39.82,20.23 20.23,18.18" fill="#7de9a3" fill-opacity="0.88" stroke="#fff" stroke-opacity="0.42" stroke-width="0.62"/><polygon points="14.18,41.01 18.18,37.77 20.23,18.18 16.99,14.18" fill="#39b567" fill-opacity="0.88" stroke="#fff" stroke-opacity="0.42" stroke-width="0.62"/><polygon points="41.01,43.82 43.82,16.99 39.82,20.23 37.77,39.82" fill="#69e594" fill-opacity="0.88" stroke="#fff" stroke-opacity="0.42" stroke-width="0.62"/><polygon points="14.18,41.01 41.01,43.82 37.77,39.82 18.18,37.77" fill="#79e89f" fill-opacity="0.88" stroke="#fff" stroke-opacity="0.42" stroke-width="0.62"/><polygon points="20.23,18.18 39.82,20.23 43.82,16.99 16.99,14.18" fill="#3caa67" fill-opacity="0.88" stroke="#fff" stroke-opacity="0.42" stroke-width="0.62"/><animate attributeName="opacity" dur="4s" repeatCount="indefinite" calcMode="discrete" values="0;0;0;0;1;0;0;0;0;0;0;0;0;0;0;0;0" keyTimes="0.00000;0.06250;0.12500;0.18750;0.25000;0.31250;0.37500;0.43750;0.50000;0.56250;0.62500;0.68750;0.75000;0.81250;0.87500;0.93750;1.00000"/></g><g opacity="0"><polygon points="15.79,41.39 35.56,41.13 34.60,22.37 15.96,20.99" fill="#7ae8a0" fill-opacity="0.88" stroke="#fff" stroke-opacity="0.42" stroke-width="0.62"/><polygon points="45.93,39.40 43.92,15.00 34.60,22.37 35.56,41.13" fill="#77e79e" fill-opacity="0.88" stroke="#fff" stroke-opacity="0.42" stroke-width="0.62"/><polygon points="15.96,20.99 34.60,22.37 43.92,15.00 19.97,12.30" fill="#41b86e" fill-opacity="0.88" stroke="#fff" stroke-opacity="0.42" stroke-width="0.62"/><animate attributeName="opacity" dur="4s" repeatCount="indefinite" calcMode="discrete" values="0;0;0;0;0;1;0;0;0;0;0;0;0;0;0;0;0" keyTimes="0.00000;0.06250;0.12500;0.18750;0.25000;0.31250;0.37500;0.43750;0.50000;0.56250;0.62500;0.68750;0.75000;0.81250;0.87500;0.93750;1.00000"/></g><g opacity="0"><polygon points="15.89,44.54 34.05,42.77 29.18,25.41 12.21,24.01" fill="#72e79b" fill-opacity="0.88" stroke="#fff" stroke-opacity="0.42" stroke-width="0.62"/><polygon points="48.63,34.83 41.05,14.72 29.18,25.41 34.05,42.77" fill="#82e9a6" fill-opacity="0.88" stroke="#fff" stroke-opacity="0.42" stroke-width="0.62"/><polygon points="12.21,24.01 29.18,25.41 41.05,14.72 22.28,10.65" fill="#45c373" fill-opacity="0.88" stroke="#fff" stroke-opacity="0.42" stroke-width="0.62"/><animate attributeName="opacity" dur="4s" repeatCount="indefinite" calcMode="discrete" values="0;0;0;0;0;0;1;0;0;0;0;0;0;0;0;0;0" keyTimes="0.00000;0.06250;0.12500;0.18750;0.25000;0.31250;0.37500;0.43750;0.50000;0.56250;0.62500;0.68750;0.75000;0.81250;0.87500;0.93750;1.00000"/></g><g opacity="0"><polygon points="48.69,31.43 36.61,16.13 24.04,29.18 33.21,44.52" fill="#8bebac" fill-opacity="0.88" stroke="#fff" stroke-opacity="0.42" stroke-width="0.62"/><polygon points="9.55,26.60 24.04,29.18 36.61,16.13 23.72,9.51" fill="#47c876" fill-opacity="0.88" stroke="#fff" stroke-opacity="0.42" stroke-width="0.62"/><polygon points="18.98,45.96 33.21,44.52 24.04,29.18 9.55,26.60" fill="#66e492" fill-opacity="0.88" stroke="#fff" stroke-opacity="0.42" stroke-width="0.62"/><animate attributeName="opacity" dur="4s" repeatCount="indefinite" calcMode="discrete" values="0;0;0;0;0;0;0;1;0;0;0;0;0;0;0;0;0" keyTimes="0.00000;0.06250;0.12500;0.18750;0.25000;0.31250;0.37500;0.43750;0.50000;0.56250;0.62500;0.68750;0.75000;0.81250;0.87500;0.93750;1.00000"/></g><g opacity="0"><polygon points="46.68,30.01 31.71,18.97 19.58,33.38 33.01,46.25" fill="#90ecb0" fill-opacity="0.88" stroke="#fff" stroke-opacity="0.42" stroke-width="0.62"/><polygon points="8.55,27.84 19.58,33.38 31.71,18.97 24.36,9.05" fill="#47c976" fill-opacity="0.88" stroke="#fff" stroke-opacity="0.42" stroke-width="0.62"/><polygon points="24.86,44.31 33.01,46.25 19.58,33.38 8.55,27.84" fill="#56e286" fill-opacity="0.88" stroke="#fff" stroke-opacity="0.42" stroke-width="0.62"/><polygon points="46.68,30.01 43.38,22.31 24.36,9.05 31.71,18.97" fill="#4fcc7c" fill-opacity="0.88" stroke="#fff" stroke-opacity="0.42" stroke-width="0.62"/><animate attributeName="opacity" dur="4s" repeatCount="indefinite" calcMode="discrete" values="0;0;0;0;0;0;0;0;1;0;0;0;0;0;0;0;0" keyTimes="0.00000;0.06250;0.12500;0.18750;0.25000;0.31250;0.37500;0.43750;0.50000;0.56250;0.62500;0.68750;0.75000;0.81250;0.87500;0.93750;1.00000"/></g><g opacity="0"><polygon points="43.71,30.67 27.09,22.89 16.15,37.50 33.56,47.72" fill="#91ecb1" fill-opacity="0.88" stroke="#fff" stroke-opacity="0.42" stroke-width="0.62"/><polygon points="43.71,30.67 45.62,18.01 24.25,9.50 27.09,22.89" fill="#5be38a" fill-opacity="0.88" stroke="#fff" stroke-opacity="0.42" stroke-width="0.62"/><polygon points="9.51,26.79 16.15,37.50 27.09,22.89 24.25,9.50" fill="#46c574" fill-opacity="0.88" stroke="#fff" stroke-opacity="0.42" stroke-width="0.62"/><animate attributeName="opacity" dur="4s" repeatCount="indefinite" calcMode="discrete" values="0;0;0;0;0;0;0;0;0;1;0;0;0;0;0;0;0" keyTimes="0.00000;0.06250;0.12500;0.18750;0.25000;0.31250;0.37500;0.43750;0.50000;0.56250;0.62500;0.68750;0.75000;0.81250;0.87500;0.93750;1.00000"/></g><g opacity="0"><polygon points="40.82,32.96 44.85,16.48 23.38,11.13 23.17,27.59" fill="#6ee697" fill-opacity="0.88" stroke="#fff" stroke-opacity="0.42" stroke-width="0.62"/><polygon points="40.82,32.96 23.17,27.59 14.05,40.81 35.10,48.39" fill="#8cebad" fill-opacity="0.88" stroke="#fff" stroke-opacity="0.42" stroke-width="0.62"/><polygon points="11.99,23.29 14.05,40.81 23.17,27.59 23.38,11.13" fill="#44c072" fill-opacity="0.88" stroke="#fff" stroke-opacity="0.42" stroke-width="0.62"/><animate attributeName="opacity" dur="4s" repeatCount="indefinite" calcMode="discrete" values="0;0;0;0;0;0;0;0;0;0;1;0;0;0;0;0;0" keyTimes="0.00000;0.06250;0.12500;0.18750;0.25000;0.31250;0.37500;0.43750;0.50000;0.56250;0.62500;0.68750;0.75000;0.81250;0.87500;0.93750;1.00000"/></g><g opacity="0"><polygon points="38.77,36.22 42.48,17.38 21.88,14.11 20.21,32.74" fill="#7fe9a3" fill-opacity="0.88" stroke="#fff" stroke-opacity="0.42" stroke-width="0.62"/><polygon points="38.77,36.22 20.21,32.74 13.49,42.38 37.77,47.33" fill="#82e9a6" fill-opacity="0.88" stroke="#fff" stroke-opacity="0.42" stroke-width="0.62"/><polygon points="14.80,18.51 13.49,42.38 20.21,32.74 21.88,14.11" fill="#42bb6f" fill-opacity="0.88" stroke="#fff" stroke-opacity="0.42" stroke-width="0.62"/><polygon points="42.48,17.38 38.77,36.22 37.77,47.33 42.70,23.17" fill="#6de697" fill-opacity="0.88" stroke="#fff" stroke-opacity="0.42" stroke-width="0.62"/><animate attributeName="opacity" dur="4s" repeatCount="indefinite" calcMode="discrete" values="0;0;0;0;0;0;0;0;0;0;0;1;0;0;0;0;0" keyTimes="0.00000;0.06250;0.12500;0.18750;0.25000;0.31250;0.37500;0.43750;0.50000;0.56250;0.62500;0.68750;0.75000;0.81250;0.87500;0.93750;1.00000"/></g><g opacity="0"><polygon points="37.99,39.64 39.64,20.01 20.01,18.36 18.36,37.99" fill="#8cebad" fill-opacity="0.88" stroke="#fff" stroke-opacity="0.42" stroke-width="0.62"/><polygon points="37.99,39.64 18.36,37.99 14.42,41.31 41.31,43.58" fill="#72e79a" fill-opacity="0.88" stroke="#fff" stroke-opacity="0.42" stroke-width="0.62"/><polygon points="39.64,20.01 37.99,39.64 41.31,43.58 43.58,16.69" fill="#70e699" fill-opacity="0.88" stroke="#fff" stroke-opacity="0.42" stroke-width="0.62"/><polygon points="16.69,14.42 14.42,41.31 18.36,37.99 20.01,18.36" fill="#41b76d" fill-opacity="0.88" stroke="#fff" stroke-opacity="0.42" stroke-width="0.62"/><polygon points="39.64,20.01 43.58,16.69 16.69,14.42 20.01,18.36" fill="#35a861" fill-opacity="0.88" stroke="#fff" stroke-opacity="0.42" stroke-width="0.62"/><animate attributeName="opacity" dur="4s" repeatCount="indefinite" calcMode="discrete" values="0;0;0;0;0;0;0;0;0;0;0;0;1;0;0;0;0" keyTimes="0.00000;0.06250;0.12500;0.18750;0.25000;0.31250;0.37500;0.43750;0.50000;0.56250;0.62500;0.68750;0.75000;0.81250;0.87500;0.93750;1.00000"/></g><g opacity="0"><polygon points="38.58,42.44 37.02,23.81 18.13,23.57 17.72,42.77" fill="#94ecb3" fill-opacity="0.88" stroke="#fff" stroke-opacity="0.42" stroke-width="0.62"/><polygon points="37.02,23.81 41.98,13.16 17.21,12.45 18.13,23.57" fill="#3ec56f" fill-opacity="0.88" stroke="#fff" stroke-opacity="0.42" stroke-width="0.62"/><polygon points="37.02,23.81 38.58,42.44 44.79,36.89 41.98,13.16" fill="#73e79b" fill-opacity="0.88" stroke="#fff" stroke-opacity="0.42" stroke-width="0.62"/><polygon points="17.21,12.45 16.51,37.09 17.72,42.77 18.13,23.57" fill="#3fb36b" fill-opacity="0.88" stroke="#fff" stroke-opacity="0.42" stroke-width="0.62"/><animate attributeName="opacity" dur="4s" repeatCount="indefinite" calcMode="discrete" values="0;0;0;0;0;0;0;0;0;0;0;0;0;1;0;0;0" keyTimes="0.00000;0.06250;0.12500;0.18750;0.25000;0.31250;0.37500;0.43750;0.50000;0.56250;0.62500;0.68750;0.75000;0.81250;0.87500;0.93750;1.00000"/></g><g opacity="0"><polygon points="40.34,43.91 34.96,28.35 16.54,29.27 18.33,46.15" fill="#94edb3" fill-opacity="0.88" stroke="#fff" stroke-opacity="0.42" stroke-width="0.62"/><polygon points="34.96,28.35 39.06,12.83 16.69,12.83 16.54,29.27" fill="#4ae07e" fill-opacity="0.88" stroke="#fff" stroke-opacity="0.42" stroke-width="0.62"/><polygon points="34.96,28.35 40.34,43.91 46.94,28.61 39.06,12.83" fill="#76e79e" fill-opacity="0.88" stroke="#fff" stroke-opacity="0.42" stroke-width="0.62"/><animate attributeName="opacity" dur="4s" repeatCount="indefinite" calcMode="discrete" values="0;0;0;0;0;0;0;0;0;0;0;0;0;0;1;0;0" keyTimes="0.00000;0.06250;0.12500;0.18750;0.25000;0.31250;0.37500;0.43750;0.50000;0.56250;0.62500;0.68750;0.75000;0.81250;0.87500;0.93750;1.00000"/></g><g opacity="0"><polygon points="33.69,33.36 35.95,15.25 15.76,15.00 15.40,34.84" fill="#5de38b" fill-opacity="0.88" stroke="#fff" stroke-opacity="0.42" stroke-width="0.62"/><polygon points="42.79,43.59 33.69,33.36 15.40,34.84 20.01,46.78" fill="#8debad" fill-opacity="0.88" stroke="#fff" stroke-opacity="0.42" stroke-width="0.62"/><polygon points="33.69,33.36 42.79,43.59 47.03,21.26 35.95,15.25" fill="#7ce8a1" fill-opacity="0.88" stroke="#fff" stroke-opacity="0.42" stroke-width="0.62"/><animate attributeName="opacity" dur="4s" repeatCount="indefinite" calcMode="discrete" values="0;0;0;0;0;0;0;0;0;0;0;0;0;0;0;1;0" keyTimes="0.00000;0.06250;0.12500;0.18750;0.25000;0.31250;0.37500;0.43750;0.50000;0.56250;0.62500;0.68750;0.75000;0.81250;0.87500;0.93750;1.00000"/></g></g><g transform="translate(29 29)"><ellipse cx="0" cy="0" rx="19.720000000000002" ry="10.44" fill="none" stroke="#46df7b" stroke-opacity=".18" stroke-width=".7"/><g filter="url(#g)"><polygon points="0,-5 5,0 0,5 -5,0" fill="#46df7b" stroke="#fff" stroke-width=".6"></polygon><animateMotion dur="3.2s" repeatCount="indefinite" path="M -19.720000000000002 0 A 19.720000000000002 10.44 0 1 1 19.720000000000002 0 A 19.720000000000002 10.44 0 1 1 -19.720000000000002 0"/><animateTransform attributeName="transform" type="rotate" from="0" to="360" dur="2s" repeatCount="indefinite" additive="sum"/></g></g></svg>