<svg xmlns="http://www.w3.org/2000/svg" width="46" height="46" viewBox="0 0 46 46"><defs><filter id="g" x="-60%" y="-60%" width="220%" height="220%"><feGaussianBlur stdDeviation="1.4" result="b"/><feMerge><feMergeNode in="b"/><feMergeNode in="SourceGraphic"/></feMerge></filter></defs><g filter="url(#g)"><g opacity="1"><polygon points="12.71,13.45 7.06,20.57 10.83,19.82 20.61,9.86 20.14,7.31" fill="none" fill-opacity="1" stroke="#ffd84a" stroke-opacity="0.92" stroke-width="1.55"/><polygon points="20.14,7.31 20.61,9.86 33.27,15.73 37.06,15.11 29.27,10.43" fill="none" fill-opacity="1" stroke="#ffd84a" stroke-opacity="0.92" stroke-width="1.55"/><polygon points="34.91,34.05 37.66,25.23 37.06,15.11 33.27,15.73 31.58,29.80" fill="none" fill-opacity="1" stroke="#ffd84a" stroke-opacity="0.92" stroke-width="1.55"/><polygon points="10.07,30.26 15.75,37.54 17.37,32.39 10.83,19.82 7.06,20.57" fill="none" fill-opacity="1" stroke="#ffd84a" stroke-opacity="0.92" stroke-width="1.55"/><polygon points="17.37,32.39 15.75,37.54 25.73,37.99 34.91,34.05 31.58,29.80" fill="none" fill-opacity="1" stroke="#ffd84a" stroke-opacity="0.92" stroke-width="1.55"/><polygon points="10.83,19.82 17.37,32.39 31.58,29.80 33.27,15.73 20.61,9.86" fill="none" fill-opacity="1" stroke="#ffd84a" stroke-opacity="0.92" stroke-width="1.55"/><animate attributeName="opacity" dur="4s" repeatCount="indefinite" calcMode="discrete" values="1;0;0;0;0;0;0;0;0;0;0;0;0;0;1" keyTimes="0.00000;0.07143;0.14286;0.21429;0.28571;0.35714;0.42857;0.50000;0.57143;0.64286;0.71429;0.78571;0.85714;0.92857;1.00000"/></g><g opacity="0"><polygon points="19.52,38.56 9.62,32.20 12.26,29.08 21.00,32.15 26.06,37.56" fill="none" fill-opacity="1" stroke="#ffd84a" stroke-opacity="0.92" stroke-width="1.55"/><polygon points="12.26,29.08 9.62,32.20 7.87,21.41 10.21,13.59 12.50,19.37" fill="none" fill-opacity="1" stroke="#ffd84a" stroke-opacity="0.92" stroke-width="1.55"/><polygon points="35.36,32.09 34.11,24.17 34.73,14.94 36.80,15.19 37.34,27.95" fill="none" fill-opacity="1" stroke="#ffd84a" stroke-opacity="0.92" stroke-width="1.55"/><polygon points="19.68,7.24 25.94,9.57 36.80,15.19 34.73,14.94 25.74,10.73" fill="none" fill-opacity="1" stroke="#ffd84a" stroke-opacity="0.92" stroke-width="1.55"/><polygon points="26.22,32.13 19.52,38.56 26.06,37.56 35.36,32.09 37.34,27.95" fill="none" fill-opacity="1" stroke="#ffd84a" stroke-opacity="0.92" stroke-width="1.55"/><polygon points="10.21,13.59 7.87,21.41 18.18,19.81 25.94,9.57 19.68,7.24" fill="none" fill-opacity="1" stroke="#ffd84a" stroke-opacity="0.92" stroke-width="1.55"/><polygon points="9.62,32.20 19.52,38.56 26.22,32.13 18.18,19.81 7.87,21.41" fill="none" fill-opacity="1" stroke="#ffd84a" stroke-opacity="0.92" stroke-width="1.55"/><polygon points="18.18,19.81 26.22,32.13 37.34,27.95 36.80,15.19 25.94,9.57" fill="none" fill-opacity="1" stroke="#ffd84a" stroke-opacity="0.92" stroke-width="1.55"/><animate attributeName="opacity" dur="4s" repeatCount="indefinite" calcMode="discrete" values="0;1;0;0;0;0;0;0;0;0;0;0;0;0;0" keyTimes="0.00000;0.07143;0.14286;0.21429;0.28571;0.35714;0.42857;0.50000;0.57143;0.64286;0.71429;0.78571;0.85714;0.92857;1.00000"/></g><g opacity="0"><polygon points="19.81,7.23 29.91,9.00 36.61,14.91 30.75,15.64 21.97,11.67" fill="none" fill-opacity="1" stroke="#ffd84a" stroke-opacity="0.92" stroke-width="1.55"/><polygon points="24.39,38.28 12.21,33.24 9.74,30.88 17.76,33.61 25.96,37.63" fill="none" fill-opacity="1" stroke="#ffd84a" stroke-opacity="0.92" stroke-width="1.55"/><polygon points="33.81,29.74 24.39,38.28 25.96,37.63 33.63,31.09 38.93,25.95" fill="none" fill-opacity="1" stroke="#ffd84a" stroke-opacity="0.92" stroke-width="1.55"/><polygon points="9.74,30.88 12.21,33.24 12.71,20.60 10.13,13.21 8.74,20.36" fill="none" fill-opacity="1" stroke="#ffd84a" stroke-opacity="0.92" stroke-width="1.55"/><polygon points="26.99,17.84 33.81,29.74 38.93,25.95 36.61,14.91 29.91,9.00" fill="none" fill-opacity="1" stroke="#ffd84a" stroke-opacity="0.92" stroke-width="1.55"/><polygon points="10.13,13.21 12.71,20.60 26.99,17.84 29.91,9.00 19.81,7.23" fill="none" fill-opacity="1" stroke="#ffd84a" stroke-opacity="0.92" stroke-width="1.55"/><polygon points="12.21,33.24 24.39,38.28 33.81,29.74 26.99,17.84 12.71,20.60" fill="none" fill-opacity="1" stroke="#ffd84a" stroke-opacity="0.92" stroke-width="1.55"/><animate attributeName="opacity" dur="4s" repeatCount="indefinite" calcMode="discrete" values="0;0;1;0;0;0;0;0;0;0;0;0;0;0;0" keyTimes="0.00000;0.07143;0.14286;0.21429;0.28571;0.35714;0.42857;0.50000;0.57143;0.64286;0.71429;0.78571;0.85714;0.92857;1.00000"/></g><g opacity="0"><polygon points="6.93,21.17 12.10,12.04 19.51,7.53 18.04,13.33 11.52,20.47" fill="none" fill-opacity="1" stroke="#ffd84a" stroke-opacity="0.92" stroke-width="1.55"/><polygon points="38.20,26.35 29.85,36.35 26.38,38.00 31.15,31.19 37.58,24.66" fill="none" fill-opacity="1" stroke="#ffd84a" stroke-opacity="0.92" stroke-width="1.55"/><polygon points="33.26,14.84 38.20,26.35 37.58,24.66 33.67,15.42 30.79,8.82" fill="none" fill-opacity="1" stroke="#ffd84a" stroke-opacity="0.92" stroke-width="1.55"/><polygon points="29.85,36.35 18.24,32.10 9.86,32.33 15.95,35.82 26.38,38.00" fill="none" fill-opacity="1" stroke="#ffd84a" stroke-opacity="0.92" stroke-width="1.55"/><polygon points="12.10,12.04 20.12,17.62 33.26,14.84 30.79,8.82 19.51,7.53" fill="none" fill-opacity="1" stroke="#ffd84a" stroke-opacity="0.92" stroke-width="1.55"/><polygon points="9.86,32.33 18.24,32.10 20.12,17.62 12.10,12.04 6.93,21.17" fill="none" fill-opacity="1" stroke="#ffd84a" stroke-opacity="0.92" stroke-width="1.55"/><polygon points="18.24,32.10 29.85,36.35 38.20,26.35 33.26,14.84 20.12,17.62" fill="none" fill-opacity="1" stroke="#ffd84a" stroke-opacity="0.92" stroke-width="1.55"/><animate attributeName="opacity" dur="4s" repeatCount="indefinite" calcMode="discrete" values="0;0;0;1;0;0;0;0;0;0;0;0;0;0;0" keyTimes="0.00000;0.07143;0.14286;0.21429;0.28571;0.35714;0.42857;0.50000;0.57143;0.64286;0.71429;0.78571;0.85714;0.92857;1.00000"/></g><g opacity="0"><polygon points="39.17,23.24 34.93,32.83 28.00,38.05 28.89,32.13 34.67,24.38" fill="none" fill-opacity="1" stroke="#ffd84a" stroke-opacity="0.92" stroke-width="1.55"/><polygon points="7.54,21.17 14.87,10.39 18.15,8.41 14.08,15.65 8.33,22.79" fill="none" fill-opacity="1" stroke="#ffd84a" stroke-opacity="0.92" stroke-width="1.55"/><polygon points="13.59,32.13 7.54,21.17 8.33,22.79 13.13,31.59 16.64,37.88" fill="none" fill-opacity="1" stroke="#ffd84a" stroke-opacity="0.92" stroke-width="1.55"/><polygon points="14.87,10.39 26.84,13.48 35.16,12.42 28.75,9.55 18.15,8.41" fill="none" fill-opacity="1" stroke="#ffd84a" stroke-opacity="0.92" stroke-width="1.55"/><polygon points="34.93,32.83 26.39,28.07 13.59,32.13 16.64,37.88 28.00,38.05" fill="none" fill-opacity="1" stroke="#ffd84a" stroke-opacity="0.92" stroke-width="1.55"/><polygon points="26.39,28.07 34.93,32.83 39.17,23.24 35.16,12.42 26.84,13.48" fill="none" fill-opacity="1" stroke="#ffd84a" stroke-opacity="0.92" stroke-width="1.55"/><polygon points="13.59,32.13 26.39,28.07 26.84,13.48 14.87,10.39 7.54,21.17" fill="none" fill-opacity="1" stroke="#ffd84a" stroke-opacity="0.92" stroke-width="1.55"/><animate attributeName="opacity" dur="4s" repeatCount="indefinite" calcMode="discrete" values="0;0;0;0;1;0;0;0;0;0;0;0;0;0;0" keyTimes="0.00000;0.07143;0.14286;0.21429;0.28571;0.35714;0.42857;0.50000;0.57143;0.64286;0.71429;0.78571;0.85714;0.92857;1.00000"/></g><g opacity="0"><polygon points="30.66,37.16 20.48,38.40 12.35,34.71 17.74,32.30 27.29,33.53" fill="none" fill-opacity="1" stroke="#ffd84a" stroke-opacity="0.92" stroke-width="1.55"/><polygon points="17.21,8.79 30.33,10.06 33.38,11.59 24.91,11.32 15.90,9.87" fill="none" fill-opacity="1" stroke="#ffd84a" stroke-opacity="0.92" stroke-width="1.55"/><polygon points="10.69,19.71 17.21,8.79 15.90,9.87 10.47,18.37 6.90,24.83" fill="none" fill-opacity="1" stroke="#ffd84a" stroke-opacity="0.92" stroke-width="1.55"/><polygon points="33.55,22.29 38.17,28.61 37.41,21.36 33.38,11.59 30.33,10.06" fill="none" fill-opacity="1" stroke="#ffd84a" stroke-opacity="0.92" stroke-width="1.55"/><polygon points="20.69,29.10 10.69,19.71 6.90,24.83 12.35,34.71 20.48,38.40" fill="none" fill-opacity="1" stroke="#ffd84a" stroke-opacity="0.92" stroke-width="1.55"/><polygon points="38.17,28.61 33.55,22.29 20.69,29.10 20.48,38.40 30.66,37.16" fill="none" fill-opacity="1" stroke="#ffd84a" stroke-opacity="0.92" stroke-width="1.55"/><polygon points="20.69,29.10 33.55,22.29 30.33,10.06 17.21,8.79 10.69,19.71" fill="none" fill-opacity="1" stroke="#ffd84a" stroke-opacity="0.92" stroke-width="1.55"/><animate attributeName="opacity" dur="4s" repeatCount="indefinite" calcMode="discrete" values="0;0;0;0;0;1;0;0;0;0;0;0;0;0;0" keyTimes="0.00000;0.07143;0.14286;0.21429;0.28571;0.35714;0.42857;0.50000;0.57143;0.64286;0.71429;0.78571;0.85714;0.92857;1.00000"/></g><g opacity="0"><polygon points="18.69,7.64 30.43,8.56 29.58,12.56 20.43,13.99 13.40,11.63" fill="none" fill-opacity="1" stroke="#ffd84a" stroke-opacity="0.92" stroke-width="1.55"/><polygon points="37.08,17.23 38.72,25.22 33.97,21.22 29.58,12.56 30.43,8.56" fill="none" fill-opacity="1" stroke="#ffd84a" stroke-opacity="0.92" stroke-width="1.55"/><polygon points="16.49,35.66 14.55,36.42 8.02,25.43 7.80,20.85 12.67,27.23" fill="none" fill-opacity="1" stroke="#ffd84a" stroke-opacity="0.92" stroke-width="1.55"/><polygon points="33.39,35.31 26.77,36.22 14.55,36.42 16.49,35.66 26.40,35.11" fill="none" fill-opacity="1" stroke="#ffd84a" stroke-opacity="0.92" stroke-width="1.55"/><polygon points="15.83,16.49 18.69,7.64 13.40,11.63 7.80,20.85 8.02,25.43" fill="none" fill-opacity="1" stroke="#ffd84a" stroke-opacity="0.92" stroke-width="1.55"/><polygon points="38.72,25.22 37.08,17.23 28.75,23.53 26.77,36.22 33.39,35.31" fill="none" fill-opacity="1" stroke="#ffd84a" stroke-opacity="0.92" stroke-width="1.55"/><polygon points="28.75,23.53 37.08,17.23 30.43,8.56 18.69,7.64 15.83,16.49" fill="none" fill-opacity="1" stroke="#ffd84a" stroke-opacity="0.92" stroke-width="1.55"/><polygon points="28.75,23.53 15.83,16.49 8.02,25.43 14.55,36.42 26.77,36.22" fill="none" fill-opacity="1" stroke="#ffd84a" stroke-opacity="0.92" stroke-width="1.55"/><animate attributeName="opacity" dur="4s" repeatCount="indefinite" calcMode="discrete" values="0;0;0;0;0;0;1;0;0;0;0;0;0;0;0" keyTimes="0.00000;0.07143;0.14286;0.21429;0.28571;0.35714;0.42857;0.50000;0.57143;0.64286;0.71429;0.78571;0.85714;0.92857;1.00000"/></g><g opacity="0"><polygon points="35.20,33.27 33.22,31.60 19.72,35.15 17.19,38.05 26.18,36.68" fill="none" fill-opacity="1" stroke="#ffd84a" stroke-opacity="0.92" stroke-width="1.55"/><polygon points="37.02,23.80 36.83,14.71 34.41,17.69 33.22,31.60 35.20,33.27" fill="none" fill-opacity="1" stroke="#ffd84a" stroke-opacity="0.92" stroke-width="1.55"/><polygon points="17.19,38.05 19.72,35.15 12.06,23.23 6.78,22.08 10.28,30.62" fill="none" fill-opacity="1" stroke="#ffd84a" stroke-opacity="0.92" stroke-width="1.55"/><polygon points="34.41,17.69 36.83,14.71 28.34,9.17 19.32,7.18 21.36,12.18" fill="none" fill-opacity="1" stroke="#ffd84a" stroke-opacity="0.92" stroke-width="1.55"/><polygon points="21.36,12.18 19.32,7.18 11.35,13.19 6.78,22.08 12.06,23.23" fill="none" fill-opacity="1" stroke="#ffd84a" stroke-opacity="0.92" stroke-width="1.55"/><polygon points="34.41,17.69 21.36,12.18 12.06,23.23 19.72,35.15 33.22,31.60" fill="none" fill-opacity="1" stroke="#ffd84a" stroke-opacity="0.92" stroke-width="1.55"/><animate attributeName="opacity" dur="4s" repeatCount="indefinite" calcMode="discrete" values="0;0;0;0;0;0;0;1;0;0;0;0;0;0;0" keyTimes="0.00000;0.07143;0.14286;0.21429;0.28571;0.35714;0.42857;0.50000;0.57143;0.64286;0.71429;0.78571;0.85714;0.92857;1.00000"/></g><g opacity="0"><polygon points="26.74,37.98 19.91,38.22 9.74,32.37 12.50,30.17 21.46,33.27" fill="none" fill-opacity="1" stroke="#ffd84a" stroke-opacity="0.92" stroke-width="1.55"/><polygon points="10.10,14.21 12.57,20.60 12.50,30.17 9.74,32.37 7.77,20.96" fill="none" fill-opacity="1" stroke="#ffd84a" stroke-opacity="0.92" stroke-width="1.55"/><polygon points="34.32,24.51 34.34,14.98 36.21,13.97 37.51,26.33 35.95,31.82" fill="none" fill-opacity="1" stroke="#ffd84a" stroke-opacity="0.92" stroke-width="1.55"/><polygon points="36.21,13.97 34.34,14.98 25.33,11.55 19.17,7.65 25.17,8.52" fill="none" fill-opacity="1" stroke="#ffd84a" stroke-opacity="0.92" stroke-width="1.55"/><polygon points="35.95,31.82 37.51,26.33 26.33,30.23 19.91,38.22 26.74,37.98" fill="none" fill-opacity="1" stroke="#ffd84a" stroke-opacity="0.92" stroke-width="1.55"/><polygon points="25.17,8.52 19.17,7.65 10.10,14.21 7.77,20.96 17.80,18.01" fill="none" fill-opacity="1" stroke="#ffd84a" stroke-opacity="0.92" stroke-width="1.55"/><polygon points="19.91,38.22 26.33,30.23 17.80,18.01 7.77,20.96 9.74,32.37" fill="none" fill-opacity="1" stroke="#ffd84a" stroke-opacity="0.92" stroke-width="1.55"/><polygon points="36.21,13.97 25.17,8.52 17.80,18.01 26.33,30.23 37.51,26.33" fill="none" fill-opacity="1" stroke="#ffd84a" stroke-opacity="0.92" stroke-width="1.55"/><animate attributeName="opacity" dur="4s" repeatCount="indefinite" calcMode="discrete" values="0;0;0;0;0;0;0;0;1;0;0;0;0;0;0" keyTimes="0.00000;0.07143;0.14286;0.21429;0.28571;0.35714;0.42857;0.50000;0.57143;0.64286;0.71429;0.78571;0.85714;0.92857;1.00000"/></g><g opacity="0"><polygon points="9.51,14.81 9.98,23.73 10.89,32.89 11.20,31.03 10.17,17.43" fill="none" fill-opacity="1" stroke="#ffd84a" stroke-opacity="0.92" stroke-width="1.55"/><polygon points="28.35,38.31 24.17,34.96 11.20,31.03 10.89,32.89 20.19,36.71" fill="none" fill-opacity="1" stroke="#ffd84a" stroke-opacity="0.92" stroke-width="1.55"/><polygon points="26.26,7.09 18.24,9.39 9.51,14.81 10.17,17.43 22.57,11.86" fill="none" fill-opacity="1" stroke="#ffd84a" stroke-opacity="0.92" stroke-width="1.55"/><polygon points="36.24,31.04 39.08,22.10 31.85,22.97 24.17,34.96 28.35,38.31" fill="none" fill-opacity="1" stroke="#ffd84a" stroke-opacity="0.92" stroke-width="1.55"/><polygon points="35.11,13.10 26.26,7.09 22.57,11.86 31.85,22.97 39.08,22.10" fill="none" fill-opacity="1" stroke="#ffd84a" stroke-opacity="0.92" stroke-width="1.55"/><polygon points="24.17,34.96 31.85,22.97 22.57,11.86 10.17,17.43 11.20,31.03" fill="none" fill-opacity="1" stroke="#ffd84a" stroke-opacity="0.92" stroke-width="1.55"/><animate attributeName="opacity" dur="4s" repeatCount="indefinite" calcMode="discrete" values="0;0;0;0;0;0;0;0;0;1;0;0;0;0;0" keyTimes="0.00000;0.07143;0.14286;0.21429;0.28571;0.35714;0.42857;0.50000;0.57143;0.64286;0.71429;0.78571;0.85714;0.92857;1.00000"/></g><g opacity="0"><polygon points="21.91,34.34 30.35,29.91 36.71,30.34 31.10,36.56 20.68,38.94" fill="none" fill-opacity="1" stroke="#ffd84a" stroke-opacity="0.92" stroke-width="1.55"/><polygon points="25.14,8.28 16.74,12.52 9.14,15.58 12.51,13.14 24.47,7.71" fill="none" fill-opacity="1" stroke="#ffd84a" stroke-opacity="0.92" stroke-width="1.55"/><polygon points="32.73,14.54 25.14,8.28 24.47,7.71 34.45,15.93 38.68,19.43" fill="none" fill-opacity="1" stroke="#ffd84a" stroke-opacity="0.92" stroke-width="1.55"/><polygon points="9.14,15.58 8.41,26.32 10.88,33.54 14.05,25.95 12.51,13.14" fill="none" fill-opacity="1" stroke="#ffd84a" stroke-opacity="0.92" stroke-width="1.55"/><polygon points="36.71,30.34 38.68,19.43 34.45,15.93 28.67,28.00 31.10,36.56" fill="none" fill-opacity="1" stroke="#ffd84a" stroke-opacity="0.92" stroke-width="1.55"/><polygon points="31.10,36.56 28.67,28.00 14.05,25.95 10.88,33.54 20.68,38.94" fill="none" fill-opacity="1" stroke="#ffd84a" stroke-opacity="0.92" stroke-width="1.55"/><polygon points="28.67,28.00 34.45,15.93 24.47,7.71 12.51,13.14 14.05,25.95" fill="none" fill-opacity="1" stroke="#ffd84a" stroke-opacity="0.92" stroke-width="1.55"/><animate attributeName="opacity" dur="4s" repeatCount="indefinite" calcMode="discrete" values="0;0;0;0;0;0;0;0;0;0;1;0;0;0;0" keyTimes="0.00000;0.07143;0.14286;0.21429;0.28571;0.35714;0.42857;0.50000;0.57143;0.64286;0.71429;0.78571;0.85714;0.92857;1.00000"/></g><g opacity="0"><polygon points="22.97,11.60 15.01,16.85 8.63,17.05 13.60,10.31 23.74,6.91" fill="none" fill-opacity="1" stroke="#ffd84a" stroke-opacity="0.92" stroke-width="1.55"/><polygon points="22.32,37.86 30.27,32.81 37.52,29.02 34.41,31.78 23.04,38.36" fill="none" fill-opacity="1" stroke="#ffd84a" stroke-opacity="0.92" stroke-width="1.55"/><polygon points="14.15,32.38 22.32,37.86 23.04,38.36 12.30,31.16 7.75,28.10" fill="none" fill-opacity="1" stroke="#ffd84a" stroke-opacity="0.92" stroke-width="1.55"/><polygon points="37.52,29.02 37.19,18.26 34.02,11.32 31.61,19.19 34.41,31.78" fill="none" fill-opacity="1" stroke="#ffd84a" stroke-opacity="0.92" stroke-width="1.55"/><polygon points="8.63,17.05 7.75,28.10 12.30,31.16 16.86,18.58 13.60,10.31" fill="none" fill-opacity="1" stroke="#ffd84a" stroke-opacity="0.92" stroke-width="1.55"/><polygon points="31.61,19.19 34.02,11.32 23.74,6.91 13.60,10.31 16.86,18.58" fill="none" fill-opacity="1" stroke="#ffd84a" stroke-opacity="0.92" stroke-width="1.55"/><polygon points="34.41,31.78 31.61,19.19 16.86,18.58 12.30,31.16 23.04,38.36" fill="none" fill-opacity="1" stroke="#ffd84a" stroke-opacity="0.92" stroke-width="1.55"/><animate attributeName="opacity" dur="4s" repeatCount="indefinite" calcMode="discrete" values="0;0;0;0;0;0;0;0;0;0;0;1;0;0;0" keyTimes="0.00000;0.07143;0.14286;0.21429;0.28571;0.35714;0.42857;0.50000;0.57143;0.64286;0.71429;0.78571;0.85714;0.92857;1.00000"/></g><g opacity="0"><polygon points="38.29,26.90 35.23,18.50 31.69,10.00 31.94,11.88 36.90,24.58" fill="none" fill-opacity="1" stroke="#ffd84a" stroke-opacity="0.92" stroke-width="1.55"/><polygon points="31.94,11.88 31.69,10.00 21.68,9.07 13.41,9.92 18.39,11.90" fill="none" fill-opacity="1" stroke="#ffd84a" stroke-opacity="0.92" stroke-width="1.55"/><polygon points="24.53,39.17 31.52,34.63 38.29,26.90 36.90,24.58 26.67,33.53" fill="none" fill-opacity="1" stroke="#ffd84a" stroke-opacity="0.92" stroke-width="1.55"/><polygon points="7.99,19.18 7.89,28.56 14.54,25.62 18.39,11.90 13.41,9.92" fill="none" fill-opacity="1" stroke="#ffd84a" stroke-opacity="0.92" stroke-width="1.55"/><polygon points="14.30,36.00 24.53,39.17 26.67,33.53 14.54,25.62 7.89,28.56" fill="none" fill-opacity="1" stroke="#ffd84a" stroke-opacity="0.92" stroke-width="1.55"/><polygon points="36.90,24.58 31.94,11.88 18.39,11.90 14.54,25.62 26.67,33.53" fill="none" fill-opacity="1" stroke="#ffd84a" stroke-opacity="0.92" stroke-width="1.55"/><animate attributeName="opacity" dur="4s" repeatCount="indefinite" calcMode="discrete" values="0;0;0;0;0;0;0;0;0;0;0;0;1;0;0" keyTimes="0.00000;0.07143;0.14286;0.21429;0.28571;0.35714;0.42857;0.50000;0.57143;0.64286;0.71429;0.78571;0.85714;0.92857;1.00000"/></g><g opacity="0"><polygon points="30.24,8.46 28.85,11.71 19.49,13.22 12.61,11.59 18.51,8.13" fill="none" fill-opacity="1" stroke="#ffd84a" stroke-opacity="0.92" stroke-width="1.55"/><polygon points="38.53,24.62 33.32,20.17 28.85,11.71 30.24,8.46 37.38,17.58" fill="none" fill-opacity="1" stroke="#ffd84a" stroke-opacity="0.92" stroke-width="1.55"/><polygon points="12.32,27.03 16.81,35.44 15.64,37.21 8.65,26.94 7.42,21.37" fill="none" fill-opacity="1" stroke="#ffd84a" stroke-opacity="0.92" stroke-width="1.55"/><polygon points="26.38,34.19 33.65,34.70 27.95,36.78 15.64,37.21 16.81,35.44" fill="none" fill-opacity="1" stroke="#ffd84a" stroke-opacity="0.92" stroke-width="1.55"/><polygon points="7.42,21.37 8.65,26.94 16.64,18.21 18.51,8.13 12.61,11.59" fill="none" fill-opacity="1" stroke="#ffd84a" stroke-opacity="0.92" stroke-width="1.55"/><polygon points="27.95,36.78 33.65,34.70 38.53,24.62 37.38,17.58 29.95,24.93" fill="none" fill-opacity="1" stroke="#ffd84a" stroke-opacity="0.92" stroke-width="1.55"/><polygon points="37.38,17.58 30.24,8.46 18.51,8.13 16.64,18.21 29.95,24.93" fill="none" fill-opacity="1" stroke="#ffd84a" stroke-opacity="0.92" stroke-width="1.55"/><polygon points="15.64,37.21 27.95,36.78 29.95,24.93 16.64,18.21 8.65,26.94" fill="none" fill-opacity="1" stroke="#ffd84a" stroke-opacity="0.92" stroke-width="1.55"/><animate attributeName="opacity" dur="4s" repeatCount="indefinite" calcMode="discrete" values="0;0;0;0;0;0;0;0;0;0;0;0;0;1;0" keyTimes="0.00000;0.07143;0.14286;0.21429;0.28571;0.35714;0.42857;0.50000;0.57143;0.64286;0.71429;0.78571;0.85714;0.92857;1.00000"/></g></g><g transform="translate(23 23)"><ellipse cx="0" cy="0" rx="15.64" ry="8.28" fill="none" stroke="#ffd84a" stroke-opacity=".18" stroke-width=".7"/><g filter="url(#g)"><polygon points="0,-5 5,0 0,5 -5,0" fill="#ffd84a" stroke="#fff" stroke-width=".6"></polygon><animateMotion dur="3.2s" repeatCount="indefinite" path="M -15.64 0 A 15.64 8.28 0 1 1 15.64 0 A 15.64 8.28 0 1 1 -15.64 0"/><animateTransform attributeName="transform" type="rotate" from="0" to="360" dur="2s" repeatCount="indefinite" additive="sum"/></g></g></svg>